<svg xmlns="http://www.w3.org/2000/svg" viewBox="0 0 165.4 211.9"><defs><style>.cls-1{fill:#c6f;}</style></defs><title>Asset 2</title><g id="Layer_2" data-name="Layer 2"><g id="Layer_1-2" data-name="Layer 1"><path class="cls-1" d="M164.57.24a59.43,59.43,0,0,0-7.22,5,92.81,92.81,0,0,0-6.89,6.26c-1.83,1.84-3.67,3.69-5.49,5.54l-9.81,9.88c-6.66,6.72-13.44,13.33-20.22,19.94-6.2,5.59-12.3,11.33-18.77,16.61-4.61,3.72-9.33,7.27-14.23,10.59A133,133,0,0,1,63.2,84.58c-7.8,3.37-16.1,5.66-24.67,5-.65-.08-1.3-.19-1.93-.31a61.32,61.32,0,0,0-4.3-15.62,27.06,27.06,0,0,0-5.71-8.25C24.11,63,20.44,61.22,17,62.27a16.11,16.11,0,0,0-4.34,2.45A54.27,54.27,0,0,0,4.84,72l-.35.39A31.11,31.11,0,0,0,1,77,12,12,0,0,0,0,79.6a4.53,4.53,0,0,0,.39,2c.26.67.55,1.33.84,2a27.61,27.61,0,0,0,2.84,4.91,25.42,25.42,0,0,0,11.44,8.68A68.76,68.76,0,0,1,17.12,106a186.5,186.5,0,0,1,.6,23.76c-.08,2.7-.33,5.42-.49,8.12-.34,5.55-.7,11.05-1.24,16.58-.58,5.94-1.19,11.87-1.87,17.8-.62,5.28-1.31,10.56-1.92,15.84l-.66,5.73c-.18,1.58-.18,3.2-.26,4.8a29.36,29.36,0,0,0,2.84,13.13,3.51,3.51,0,0,0,3.36-.81,40.45,40.45,0,0,0,6.06-4.52,75.68,75.68,0,0,0,6.82-6.82L33,196.34a16.49,16.49,0,0,0,2.81-4.92c-.27-3.94-.76-7.86-.65-11.81.08-2.89.19-5.79.33-8.68.24-4.94.53-9.88.84-14.82.7-10.87,1.48-21.74,1.68-32.63.07-3.55.13-7.09.2-10.63a134.72,134.72,0,0,0-.5-13.91,71.06,71.06,0,0,0,7.49-1.82A78.16,78.16,0,0,0,55.56,93c3.68-1.69,7.27-3.59,10.78-5.6A189.12,189.12,0,0,0,86,74.1c4.55-3.47,9.11-7.06,13.34-10.91l14.87-13.55c4.32-3.94,8.39-8.17,12.55-12.27,3.74-3.68,7.42-7.42,11.11-11.15,5-5,9.84-10.16,15-15q1.65-1.53,3.37-3c.59-.46,1.2-.91,1.82-1.34,1-.65,2-1.28,3-1.89a13.12,13.12,0,0,0,3.69-3.47A4,4,0,0,0,165.4.34c0-.25-.12-.34-.26-.34a1.35,1.35,0,0,0-.57.24"/></g></g></svg>